# vtk DataFile Version 3.0
FEM Simulation Results - Time: 0.75
ASCII
DATASET UNSTRUCTURED_GRID
POINTS 100 double
0 0 0
1 0 0
0.111111 0 0
0.222222 0 0
0.333333 0 0
0.444444 0 0
0.555556 0 0
0.666667 0 0
0.777778 0 0
0.888889 0 0
1 1 0
1 0.111111 0
1 0.222222 0
1 0.333333 0
1 0.444444 0
1 0.555556 0
1 0.666667 0
1 0.777778 0
1 0.888889 0
0 1 0
0.888889 1 0
0.777778 1 0
0.666667 1 0
0.555556 1 0
0.444444 1 0
0.333333 1 0
0.222222 1 0
0.111111 1 0
0 0.888889 0
0 0.777778 0
0 0.666667 0
0 0.555556 0
0 0.444444 0
0 0.333333 0
0 0.222222 0
0 0.111111 0
0.111111 0.111111 0
0.111111 0.222222 0
0.111111 0.333333 0
0.111111 0.444444 0
0.111111 0.555556 0
0.111111 0.666667 0
0.111111 0.777778 0
0.111111 0.888889 0
0.222222 0.111111 0
0.222222 0.222222 0
0.222222 0.333333 0
0.222222 0.444444 0
0.222222 0.555556 0
0.222222 0.666667 0
0.222222 0.777778 0
0.222222 0.888889 0
0.333333 0.111111 0
0.333333 0.222222 0
0.333333 0.333333 0
0.333333 0.444444 0
0.333333 0.555556 0
0.333333 0.666667 0
0.333333 0.777778 0
0.333333 0.888889 0
0.444444 0.111111 0
0.444444 0.222222 0
0.444444 0.333333 0
0.444444 0.444444 0
0.444444 0.555556 0
0.444444 0.666667 0
0.444444 0.777778 0
0.444444 0.888889 0
0.555556 0.111111 0
0.555556 0.222222 0
0.555556 0.333333 0
0.555556 0.444444 0
0.555556 0.555556 0
0.555556 0.666667 0
0.555556 0.777778 0
0.555556 0.888889 0
0.666667 0.111111 0
0.666667 0.222222 0
0.666667 0.333333 0
0.666667 0.444444 0
0.666667 0.555556 0
0.666667 0.666667 0
0.666667 0.777778 0
0.666667 0.888889 0
0.777778 0.111111 0
0.777778 0.222222 0
0.777778 0.333333 0
0.777778 0.444444 0
0.777778 0.555556 0
0.777778 0.666667 0
0.777778 0.777778 0
0.777778 0.888889 0
0.888889 0.111111 0
0.888889 0.222222 0
0.888889 0.333333 0
0.888889 0.444444 0
0.888889 0.555556 0
0.888889 0.666667 0
0.888889 0.777778 0
0.888889 0.888889 0
CELLS 162 648
3 0 2 35
3 35 2 36
3 35 36 34
3 34 36 37
3 34 37 33
3 33 37 38
3 33 38 32
3 32 38 39
3 32 39 31
3 31 39 40
3 31 40 30
3 30 40 41
3 30 41 29
3 29 41 42
3 29 42 28
3 28 42 43
3 28 43 19
3 19 43 27
3 2 3 36
3 36 3 44
3 36 44 37
3 37 44 45
3 37 45 38
3 38 45 46
3 38 46 39
3 39 46 47
3 39 47 40
3 40 47 48
3 40 48 41
3 41 48 49
3 41 49 42
3 42 49 50
3 42 50 43
3 43 50 51
3 43 51 27
3 27 51 26
3 3 4 44
3 44 4 52
3 44 52 45
3 45 52 53
3 45 53 46
3 46 53 54
3 46 54 47
3 47 54 55
3 47 55 48
3 48 55 56
3 48 56 49
3 49 56 57
3 49 57 50
3 50 57 58
3 50 58 51
3 51 58 59
3 51 59 26
3 26 59 25
3 4 5 52
3 52 5 60
3 52 60 53
3 53 60 61
3 53 61 54
3 54 61 62
3 54 62 55
3 55 62 63
3 55 63 56
3 56 63 64
3 56 64 57
3 57 64 65
3 57 65 58
3 58 65 66
3 58 66 59
3 59 66 67
3 59 67 25
3 25 67 24
3 5 6 60
3 60 6 68
3 60 68 61
3 61 68 69
3 61 69 62
3 62 69 70
3 62 70 63
3 63 70 71
3 63 71 64
3 64 71 72
3 64 72 65
3 65 72 73
3 65 73 66
3 66 73 74
3 66 74 67
3 67 74 75
3 67 75 24
3 24 75 23
3 6 7 68
3 68 7 76
3 68 76 69
3 69 76 77
3 69 77 70
3 70 77 78
3 70 78 71
3 71 78 79
3 71 79 72
3 72 79 80
3 72 80 73
3 73 80 81
3 73 81 74
3 74 81 82
3 74 82 75
3 75 82 83
3 75 83 23
3 23 83 22
3 7 8 76
3 76 8 84
3 76 84 77
3 77 84 85
3 77 85 78
3 78 85 86
3 78 86 79
3 79 86 87
3 79 87 80
3 80 87 88
3 80 88 81
3 81 88 89
3 81 89 82
3 82 89 90
3 82 90 83
3 83 90 91
3 83 91 22
3 22 91 21
3 8 9 84
3 84 9 92
3 84 92 85
3 85 92 93
3 85 93 86
3 86 93 94
3 86 94 87
3 87 94 95
3 87 95 88
3 88 95 96
3 88 96 89
3 89 96 97
3 89 97 90
3 90 97 98
3 90 98 91
3 91 98 99
3 91 99 21
3 21 99 20
3 9 1 92
3 92 1 11
3 92 11 93
3 93 11 12
3 93 12 94
3 94 12 13
3 94 13 95
3 95 13 14
3 95 14 96
3 96 14 15
3 96 15 97
3 97 15 16
3 97 16 98
3 98 16 17
3 98 17 99
3 99 17 18
3 99 18 20
3 20 18 10
CELL_TYPES 162
5
5
5
5
5
5
5
5
5
5
5
5
5
5
5
5
5
5
5
5
5
5
5
5
5
5
5
5
5
5
5
5
5
5
5
5
5
5
5
5
5
5
5
5
5
5
5
5
5
5
5
5
5
5
5
5
5
5
5
5
5
5
5
5
5
5
5
5
5
5
5
5
5
5
5
5
5
5
5
5
5
5
5
5
5
5
5
5
5
5
5
5
5
5
5
5
5
5
5
5
5
5
5
5
5
5
5
5
5
5
5
5
5
5
5
5
5
5
5
5
5
5
5
5
5
5
5
5
5
5
5
5
5
5
5
5
5
5
5
5
5
5
5
5
5
5
5
5
5
5
5
5
5
5
5
5
5
5
5
5
5
5
POINT_DATA 100
SCALARS Temperature double 1
LOOKUP_TABLE default
0
0
0
0
0
0
0
0
0
0
0
0
0
0
0
0
0
0
0
0
0
0
0
0
0
0
0
0
0
0
0
0
0
0
0
0
0.133971
0.267943
0.392363
0.47857
0.482605
0.402449
0.276012
0.138005
0.267943
0.545441
0.822941
1.03932
1.0494
0.851182
0.563596
0.276012
0.392363
0.822941
1.31465
1.80636
1.82452
1.38929
0.851182
0.402449
0.47857
1.03932
1.80636
2.42969
2.43574
1.82452
1.0494
0.482605
0.482605
1.0494
1.82452
2.43574
2.42969
1.80636
1.03932
0.47857
0.402449
0.851182
1.38929
1.82452
1.80636
1.31465
0.822941
0.392363
0.276012
0.563596
0.851182
1.0494
1.03932
0.822941
0.545441
0.267943
0.138005
0.276012
0.402449
0.482605
0.47857
0.392363
0.267943
0.133971
